<svg width="256" height="256" viewBox="0 0 256 256" fill="none" xmlns="http://www.w3.org/2000/svg">
<path d="M231.82 99.614C232.088 100.314 232.175 101.072 232.07 101.814C231.966 102.557 231.674 103.262 231.223 103.861C230.771 104.46 230.175 104.934 229.489 105.239C228.804 105.544 228.052 105.67 227.305 105.605L211.129 104.191C210.342 104.122 209.588 103.845 208.945 103.386C208.302 102.928 207.793 102.305 207.472 101.584C207.151 100.862 207.029 100.068 207.118 99.2835C207.208 98.4989 207.506 97.7525 207.981 97.122L218.339 83.3768C218.813 82.7454 219.449 82.2526 220.178 81.9497C220.908 81.6467 221.705 81.5447 222.487 81.6542C223.27 81.7637 224.008 82.0808 224.627 82.5724C225.245 83.064 225.72 83.7122 226.003 84.4497L231.82 99.614Z" fill="#7F7F7F"/>
<path d="M24.0619 252.8C22.9324 251.458 22.2799 249.779 22.2077 248.027C22.1704 246.483 22.4622 244.949 23.0645 243.527C23.7569 241.852 24.6963 240.29 25.8523 238.894L25.8655 238.885L103.785 131.578L20.6633 17.1146C20.6633 17.1146 13.8001 9.37439 18.8618 3.20816C22.2272 -0.897409 27.0173 -0.229955 29.8529 0.70589C31.5143 1.25255 32.8231 1.63738 32.8231 1.63738L109.578 26.8205C110.798 27.2335 111.96 27.8005 113.036 28.5077C114 29.2195 114.851 30.0727 115.561 31.0385L146.937 72.1557L163.058 49.9538C163.058 49.9538 163.074 49.9381 163.099 49.9077C163.212 49.7491 163.586 49.2793 164.112 48.6269C165.269 47.0785 166.899 45.948 168.754 45.4063C169.485 45.2296 170.235 45.1451 170.986 45.1536C173.13 45.2258 175.25 45.6234 177.274 46.3334H177.285L227.339 62.2763C228.457 62.6083 229.524 63.0919 230.511 63.713C232.581 64.9288 234.144 66.8496 234.912 69.124C235.4 70.7177 235.389 72.4246 234.881 74.0121C234.464 75.298 233.851 76.5112 233.064 77.6106C232.594 78.2979 232.183 78.9352 232.179 78.942L192.147 131.402L226.979 177.049C226.979 177.049 227.394 177.685 227.864 178.38C229.141 180.239 230.822 183.29 229.718 186.865C228.077 192.171 222.143 193.717 222.143 193.717L172.089 209.66C172.089 209.66 167.117 211.497 163.559 210.591C161.711 210.033 160.087 208.904 158.921 207.366C158.269 206.567 157.864 206.039 157.864 206.039L146.812 190.819L120.767 224.952C120.769 224.958 120.769 224.963 120.767 224.968C120.057 225.928 119.207 226.776 118.245 227.483C117.172 228.194 116.012 228.764 114.794 229.179L38.0342 254.356C38.0184 254.363 36.6849 254.755 35.0618 255.287C33.7321 255.744 32.3376 255.984 30.9316 255.997C29.6173 256.032 28.312 255.763 27.12 255.208C25.9279 254.653 24.8811 253.829 24.0619 252.8ZM189.267 73.2366C188.328 74.3919 187.627 75.7215 187.206 77.1493C186.785 78.5771 186.652 80.0742 186.813 81.5541C186.962 83.0351 187.404 84.472 188.113 85.7809C188.822 87.0898 189.784 88.2451 190.943 89.1795C192.955 90.8227 195.475 91.7158 198.072 91.706C199.762 91.7118 201.432 91.3372 202.958 90.6097C204.484 89.8823 205.826 88.8202 206.886 87.5033C207.825 86.3482 208.526 85.0184 208.949 83.5906C209.371 82.1629 209.506 80.6661 209.346 79.1858C209.194 77.7049 208.749 76.2676 208.039 74.959C207.329 73.6504 206.368 72.4959 205.21 71.5604C203.192 69.9279 200.676 69.0362 198.081 69.0339C196.391 69.0316 194.722 69.408 193.197 70.1346C191.672 70.8612 190.329 71.9188 189.267 73.2322V73.2366Z" fill="white"/>
</svg>
