<svg width="143" height="40" viewBox="0 0 143 40" fill="none" xmlns="http://www.w3.org/2000/svg">
<g clip-path="url(#clip0_628_5)">
<path d="M33.5688 15.5649C33.6109 15.6744 33.6243 15.7927 33.608 15.9087C33.5917 16.0248 33.5461 16.1348 33.4756 16.2285C33.405 16.3221 33.3119 16.3962 33.2048 16.4439C33.0977 16.4916 32.9802 16.5112 32.8635 16.501L30.3359 16.2801C30.213 16.2694 30.0952 16.2259 29.9947 16.1543C29.8942 16.0827 29.8147 15.9854 29.7646 15.8727C29.7144 15.76 29.6953 15.6359 29.7093 15.5133C29.7232 15.3907 29.7698 15.2741 29.8441 15.1755L31.4625 13.0279C31.5366 12.9292 31.6359 12.8522 31.7499 12.8049C31.8639 12.7575 31.9885 12.7416 32.1107 12.7587C32.2329 12.7758 32.3483 12.8253 32.445 12.9022C32.5416 12.979 32.6158 13.0803 32.6601 13.1955L33.5688 15.5649Z" fill="#7F7F7F"/>
<path d="M1.10342 39.5001C0.926935 39.2904 0.824983 39.028 0.813701 38.7541C0.807869 38.513 0.853475 38.2733 0.947575 38.0511C1.05577 37.7894 1.20255 37.5453 1.38318 37.3272L1.38524 37.3258L13.5602 20.559L0.572385 2.67415C0.572385 2.67415 -0.499978 1.46475 0.290907 0.501275C0.816758 -0.14022 1.5652 -0.0359305 2.00827 0.110295C2.26785 0.195711 2.47236 0.25584 2.47236 0.25584L14.4654 4.1907C14.656 4.25524 14.8375 4.34383 15.0057 4.45433C15.1563 4.56555 15.2893 4.69887 15.4001 4.84977L20.3026 11.2743L22.8215 7.80529C22.8215 7.80529 22.824 7.80283 22.828 7.79808C22.8456 7.7733 22.904 7.69989 22.9863 7.59796C23.1671 7.35602 23.4217 7.17937 23.7116 7.09473C23.8257 7.06713 23.9429 7.05392 24.0604 7.05525C24.3953 7.06653 24.7266 7.12866 25.0428 7.23959H25.0445L32.8655 9.73067C33.0401 9.78254 33.2069 9.85812 33.3612 9.95516C33.6846 10.1451 33.9287 10.4452 34.0487 10.8006C34.1251 11.0496 34.1234 11.3164 34.0439 11.5644C33.9787 11.7653 33.8829 11.9549 33.76 12.1267C33.6866 12.234 33.6224 12.3336 33.6217 12.3347L27.3667 20.5315L32.8092 27.6639C32.8092 27.6639 32.8741 27.7633 32.9475 27.8719C33.147 28.1623 33.4097 28.6391 33.2372 29.1976C32.9808 30.0266 32.0537 30.2683 32.0537 30.2683L24.2327 32.7594C24.2327 32.7594 23.4559 33.0464 22.8998 32.9049C22.6111 32.8177 22.3574 32.6412 22.1751 32.401C22.0732 32.276 22.01 32.1936 22.01 32.1936L20.2831 29.8155L16.2136 35.1488C16.2139 35.1496 16.2139 35.1504 16.2136 35.1512C16.1027 35.3012 15.9698 35.4337 15.8196 35.5443C15.6519 35.6553 15.4706 35.7443 15.2803 35.8093L3.28659 39.7431C3.28413 39.7442 3.07576 39.8055 2.82215 39.8886C2.61439 39.9601 2.3965 39.9975 2.17681 39.9995C1.97145 40.0051 1.7675 39.963 1.58124 39.8763C1.39499 39.7896 1.23143 39.6607 1.10342 39.5001ZM26.9167 11.4432C26.77 11.6237 26.6605 11.8315 26.5947 12.0546C26.5289 12.2777 26.5081 12.5116 26.5333 12.7428C26.5566 12.9742 26.6257 13.1988 26.7365 13.4033C26.8472 13.6078 26.9975 13.7883 27.1786 13.9343C27.4929 14.191 27.8866 14.3306 28.2925 14.3291C28.5566 14.33 28.8175 14.2714 29.0559 14.1578C29.2943 14.0441 29.5041 13.8782 29.6697 13.6724C29.8165 13.4919 29.926 13.2841 29.992 13.061C30.058 12.838 30.0791 12.6041 30.0541 12.3728C30.0302 12.1414 29.9608 11.9168 29.8499 11.7123C29.739 11.5079 29.5887 11.3275 29.4078 11.1813C29.0925 10.9262 28.6994 10.7869 28.2939 10.7866C28.0299 10.7862 27.7691 10.845 27.5308 10.9585C27.2925 11.0721 27.0827 11.2373 26.9167 11.4425V11.4432Z" fill="white"/>
<path d="M44.252 32.3708L52.2178 20.0497V19.9988L44.3197 7.91494H49.4891L55.1669 17.1177H55.3533L61.0142 7.91494H65.9123L57.7431 20.1174V20.1683L65.7767 32.3708H60.743L54.9635 23.3715H54.811L49.0145 32.3708H44.252Z" fill="white"/>
<path d="M78.4204 32.7267C75.8273 32.7267 73.8443 31.4387 72.8274 29.3202H72.7257V32.3708H68.5055V7.91494H72.7257V17.4905H72.8274C73.8443 15.3381 75.8951 14.0331 78.4374 14.0331C82.9457 14.0331 85.8439 17.5753 85.8439 23.3715V23.3884C85.8439 29.1676 82.9626 32.7267 78.4204 32.7267ZM77.1493 29.1676C79.861 29.1676 81.539 26.9644 81.539 23.3884V23.3715C81.539 19.7954 79.8441 17.5922 77.1493 17.5922C74.5561 17.5922 72.7257 19.8632 72.7257 23.3715V23.3884C72.7257 26.9136 74.5392 29.1676 77.1493 29.1676Z" fill="white"/>
<path d="M90.7929 11.8299C89.4709 11.8299 88.4371 10.7791 88.4371 9.52499C88.4371 8.23695 89.4709 7.20312 90.7929 7.20312C92.1149 7.20312 93.1318 8.23695 93.1318 9.52499C93.1318 10.7791 92.1149 11.8299 90.7929 11.8299ZM88.6743 32.3708V14.406H92.8945V32.3708H88.6743Z" fill="white"/>
<path d="M96.4877 32.3708V14.406H100.708V17.5075H100.793C101.352 15.3381 102.843 14.0331 104.911 14.0331C105.437 14.0331 105.928 14.1179 106.25 14.2026V18.0159C105.894 17.8803 105.25 17.7786 104.538 17.7786C102.149 17.7786 100.708 19.287 100.708 21.9478V32.3708H96.4877Z" fill="white"/>
<path d="M114.419 32.7267C109.877 32.7267 106.996 29.1676 106.996 23.3884V23.3715C106.996 17.5753 109.894 14.0331 114.402 14.0331C116.945 14.0331 118.995 15.3381 120.012 17.4905H120.114V7.91494H124.334V32.3708H120.114V29.3202H120.012C118.995 31.4387 117.012 32.7267 114.419 32.7267ZM115.69 29.1676C118.301 29.1676 120.114 26.9136 120.114 23.3884V23.3715C120.114 19.8632 118.284 17.5922 115.69 17.5922C112.996 17.5922 111.301 19.7954 111.301 23.3715V23.3884C111.301 26.9644 112.979 29.1676 115.69 29.1676Z" fill="white"/>
<path d="M134.893 32.7267C130.182 32.7267 127.487 30.4896 127.114 27.1508L127.097 26.9983H131.249L131.283 27.1508C131.605 28.6931 132.775 29.6083 134.91 29.6083C136.961 29.6083 138.198 28.7778 138.198 27.4559V27.439C138.198 26.3543 137.571 25.7442 135.707 25.3205L132.724 24.6595C129.283 23.8968 127.555 22.219 127.555 19.5582V19.5412C127.555 16.2533 130.419 14.0331 134.758 14.0331C139.232 14.0331 141.842 16.4906 141.995 19.5921L142.012 19.7785H138.08L138.063 19.6429C137.876 18.2023 136.724 17.1516 134.758 17.1516C132.893 17.1516 131.724 18.0159 131.724 19.3378V19.3548C131.724 20.3886 132.419 21.0665 134.283 21.4902L137.283 22.1512C140.995 22.9816 142.435 24.4392 142.435 27.0492V27.0661C142.435 30.4557 139.3 32.7267 134.893 32.7267Z" fill="white"/>
</g>
<defs>
<clipPath id="clip0_628_5">
<rect width="142.44" height="40" fill="white"/>
</clipPath>
</defs>
</svg>
